<svg width="1150" height="1150" viewBox="0 0 1150 1150" fill="none" xmlns="http://www.w3.org/2000/svg">
<rect width="1150" height="1150" rx="200" fill="#121826"/>
<path opacity="0.5" d="M551.7 396.097C614.6 359.397 666.6 393.697 675.8 472.897C677.4 486.597 667 504.697 654.3 512.097L449.1 631.897C436.4 639.297 426 633.297 427.6 617.697C436.8 527.997 488.9 432.797 551.7 396.097Z" fill="url(#paint0_linear)"/>
<path opacity="0.5" d="M481.6 293.296C481.6 347.996 513.2 373.796 552.2 350.996C591.2 328.196 622.8 265.496 622.8 210.796C622.8 156.096 591.2 130.296 552.2 153.096C513.2 175.896 481.6 238.596 481.6 293.296Z" fill="url(#paint1_linear)"/>
<path opacity="0.07" d="M511.3 363.297C574.2 326.597 626.2 360.897 635.4 440.097C637 453.797 626.6 471.897 613.9 479.297L408.7 599.097C396 606.497 385.6 600.497 387.2 584.897C396.4 495.197 448.4 399.997 511.3 363.297Z" fill="url(#paint2_linear)"/>
<path opacity="0.07" d="M441.2 260.497C441.2 315.197 472.8 340.997 511.8 318.197C550.8 295.397 582.4 232.697 582.4 177.997C582.4 123.297 550.8 97.4966 511.8 120.297C472.8 143.097 441.2 205.797 441.2 260.497Z" fill="url(#paint3_linear)"/>
<path opacity="0.2" d="M305.3 672.197L483 569.597V662.197L305.3 764.797V672.197Z" fill="url(#paint4_linear)"/>
<path d="M446.9 621.496C446.9 629.096 451.4 632.696 457 629.496C462.6 626.296 467.1 617.496 467.1 609.896C467.1 602.296 462.6 598.696 457 601.896C451.4 605.096 446.9 613.896 446.9 621.496Z" fill="#3E90AE"/>
<path opacity="0.15" d="M437.5 618.196L384.1 649.096V660.196L437.6 629.296L437.5 618.196Z" fill="white"/>
<path opacity="0.15" d="M437.5 640.496L323.7 706.196V717.496L437.5 651.796V640.496Z" fill="white"/>
<path opacity="0.2" d="M666.3 565.196L844 462.696V555.296L666.3 657.896V565.196Z" fill="url(#paint5_linear)"/>
<path d="M807.9 514.496C807.9 522.096 812.4 525.696 818 522.496C823.6 519.296 828.1 510.496 828.1 502.896C828.1 495.296 823.6 491.696 818 494.896C812.4 498.096 807.9 506.896 807.9 514.496Z" fill="#54B5A6"/>
<path opacity="0.15" d="M798.8 511.696L766.6 530.296V541.596L798.8 522.996V511.696Z" fill="white"/>
<path opacity="0.15" d="M798.5 533.996L684.7 599.696V610.996L798.5 545.296V533.996Z" fill="white"/>
<path opacity="0.3" d="M551.8 667.597L215.1 861.997L215 1037.5L522 860.297L551.7 869.997L551.8 667.597Z" fill="url(#paint6_linear)"/>
<path d="M483.4 765.896C483.4 780.396 491.9 787.096 502.5 780.996C513.1 774.896 521.6 758.196 521.6 743.796C521.6 729.296 513.1 722.596 502.5 728.696C492 734.796 483.4 751.496 483.4 765.896Z" fill="#3E90AE"/>
<path opacity="0.15" d="M465.2 760.297L391.4 802.897V818.297L465.2 775.697V760.297Z" fill="white"/>
<path opacity="0.15" d="M465.2 791.196L244.8 918.396V933.796L465.2 806.596V791.196Z" fill="white"/>
<path opacity="0.15" d="M465.2 822.097L292.9 921.597V936.997L465.2 837.497V822.097Z" fill="white"/>
<path opacity="0.3" d="M597.3 717.996L934 523.696L933.9 699.196L626.9 876.396L597.2 920.396L597.3 717.996Z" fill="url(#paint7_linear)"/>
<path d="M665.7 737.297C665.7 751.797 657.1 768.397 646.6 774.497C636 780.597 627.5 773.797 627.5 759.297C627.5 744.797 636.1 728.197 646.6 722.097C657.1 716.097 665.7 722.897 665.7 737.297Z" fill="#54B5A6"/>
<path opacity="0.15" d="M683.9 710.796L757.7 668.196V683.596L683.9 726.196V710.796Z" fill="white"/>
<path opacity="0.15" d="M683.8 741.596L904.2 614.396V629.796L683.9 756.996L683.8 741.596Z" fill="white"/>
<path opacity="0.15" d="M683.8 772.496L856.1 672.996V688.396L683.8 787.896V772.496Z" fill="white"/>
<path opacity="0.2" d="M793.8 827.297C787.8 830.697 783 839.097 783 846.097V876.597L762.8 888.197C756.8 891.597 752 899.997 752 906.897C752 913.797 756.8 916.597 762.8 913.197L783 901.497V931.997C783 938.897 787.8 941.697 793.8 938.297C799.8 934.897 804.6 926.497 804.6 919.597V889.097L824.8 877.497C830.8 874.097 835.6 865.697 835.6 858.797C835.6 851.897 830.8 849.097 824.8 852.497L804.6 864.097V833.597C804.7 826.597 799.8 823.797 793.8 827.297Z" fill="url(#paint8_linear)"/>
<path opacity="0.2" d="M359.3 436.597L331.5 491.197C327.7 498.697 328.3 506.197 332.9 507.997C337.5 509.797 344.3 505.097 348.1 497.597L348.4 496.897V557.497C348.4 564.397 353.2 567.197 359.2 563.797C365.2 560.297 370 551.997 370 545.097V484.497L370.3 484.797C374.1 487.897 381 484.697 385.5 477.597C390.1 470.497 390.7 462.297 386.9 459.197L359.3 436.597Z" fill="url(#paint9_linear)"/>
<path opacity="0.2" d="M597.3 534.207L640.1 509.507V495.107L597.3 519.807C593.8 521.807 588.7 525.907 584.4 532.207C579.7 538.907 576.4 547.407 576.4 556.607C576.4 566.807 579 572.607 583.9 574.207C588.5 575.707 594 573.107 597.3 571.207L614.9 561.007L615 560.907C616.5 560.007 618.9 559.107 620.8 559.707C622.4 560.207 624.1 561.707 624.1 567.407C624.1 573.107 622.3 576.507 620.9 578.607C619.1 581.207 616.7 583.007 615.2 583.807L615 583.907L561.2 615.007V629.407L614.7 598.507C618.4 596.607 623.7 592.507 628.3 586.107C633.3 579.007 636.7 570.107 636.7 560.207C636.7 550.307 633.3 545.307 628.4 543.907C623.8 542.607 618.5 544.507 614.8 546.707L597.4 556.807C594.9 558.307 593 558.907 591.7 558.507C590.7 558.207 588.9 556.807 588.9 549.507C588.9 544.707 590.4 541.607 591.9 539.607C593.6 536.907 595.8 535.007 597.3 534.207Z" fill="white"/>
<path d="M632.2 506.407C632.2 519.307 639.8 525.407 649.1 520.107C658.4 514.707 666 499.907 666 486.907C666 474.007 658.4 467.907 649.1 473.207C639.8 478.607 632.2 493.507 632.2 506.407Z" fill="#54B5A6"/>
<path d="M539.2 634.407C539.2 647.307 546.8 653.407 556.1 648.107C565.4 642.707 573 627.907 573 614.907C573 602.007 565.4 595.907 556.1 601.207C546.8 606.607 539.2 621.507 539.2 634.407Z" fill="#3E90AE"/>
<defs>
<linearGradient id="paint0_linear" x1="292.224" y1="336.248" x2="547.669" y2="522.588" gradientUnits="userSpaceOnUse">
<stop stop-color="white"/>
<stop offset="1" stop-color="white" stop-opacity="0"/>
</linearGradient>
<linearGradient id="paint1_linear" x1="422.403" y1="157.382" x2="677.847" y2="343.721" gradientUnits="userSpaceOnUse">
<stop stop-color="white"/>
<stop offset="1" stop-color="white" stop-opacity="0"/>
</linearGradient>
<linearGradient id="paint2_linear" x1="251.807" y1="303.437" x2="507.252" y2="489.776" gradientUnits="userSpaceOnUse">
<stop stop-color="white"/>
<stop offset="1" stop-color="white" stop-opacity="0"/>
</linearGradient>
<linearGradient id="paint3_linear" x1="381.986" y1="124.57" x2="637.43" y2="310.909" gradientUnits="userSpaceOnUse">
<stop stop-color="white"/>
<stop offset="1" stop-color="white" stop-opacity="0"/>
</linearGradient>
<linearGradient id="paint4_linear" x1="374.123" y1="632.483" x2="414.207" y2="701.929" gradientUnits="userSpaceOnUse">
<stop stop-color="white"/>
<stop offset="1" stop-color="white" stop-opacity="0"/>
</linearGradient>
<linearGradient id="paint5_linear" x1="735.122" y1="525.495" x2="775.206" y2="594.942" gradientUnits="userSpaceOnUse">
<stop stop-color="white"/>
<stop offset="1" stop-color="white" stop-opacity="0"/>
</linearGradient>
<linearGradient id="paint6_linear" x1="407.179" y1="673.309" x2="363.645" y2="1026.41" gradientUnits="userSpaceOnUse">
<stop stop-color="white"/>
<stop offset="1" stop-color="white" stop-opacity="0"/>
</linearGradient>
<linearGradient id="paint7_linear" x1="670.719" y1="647.718" x2="844.592" y2="783.856" gradientUnits="userSpaceOnUse">
<stop stop-color="white"/>
<stop offset="1" stop-color="white" stop-opacity="0"/>
</linearGradient>
<linearGradient id="paint8_linear" x1="772.945" y1="866.252" x2="825.303" y2="907.572" gradientUnits="userSpaceOnUse">
<stop stop-color="white"/>
<stop offset="1" stop-color="white" stop-opacity="0"/>
</linearGradient>
<linearGradient id="paint9_linear" x1="339.539" y1="491.676" x2="390.26" y2="519.95" gradientUnits="userSpaceOnUse">
<stop stop-color="white"/>
<stop offset="1" stop-color="white" stop-opacity="0"/>
</linearGradient>
</defs>
</svg>
