<?xml version="1.0" standalone="no"?>
<!DOCTYPE svg PUBLIC "-//W3C//DTD SVG 20010904//EN"
 "http://www.w3.org/TR/2001/REC-SVG-20010904/DTD/svg10.dtd">
<svg version="1.0" xmlns="http://www.w3.org/2000/svg"
 width="640.000000pt" height="640.000000pt" viewBox="0 0 640.000000 640.000000"
 preserveAspectRatio="xMidYMid meet">
<metadata>
Created by potrace 1.11, written by Peter Selinger 2001-2013
</metadata>
<g transform="translate(0.000000,640.000000) scale(0.100000,-0.100000)"
fill="#000000" stroke="none">
<path d="M475 6372 c-101 -34 -155 -66 -226 -133 -131 -125 -191 -275 -185
-459 4 -101 17 -154 57 -235 71 -147 210 -262 370 -306 67 -18 198 -20 267 -4
188 44 214 40 467 -67 105 -44 218 -93 253 -109 35 -16 65 -29 68 -29 4 0 50
-20 134 -58 19 -9 37 -17 40 -17 7 -2 31 -12 230 -100 96 -42 180 -78 185 -79
10 -3 48 -20 130 -56 22 -10 90 -39 150 -65 61 -26 124 -53 140 -60 151 -66
342 -148 395 -170 36 -15 83 -35 105 -45 22 -10 72 -31 110 -48 39 -16 88 -38
110 -48 22 -9 42 -18 45 -19 8 -3 45 -19 290 -125 239 -104 340 -143 340 -133
0 3 6 1 13 -4 11 -8 47 -9 92 -1 37 7 83 41 106 79 13 21 27 39 32 39 4 0 7 6
7 13 0 7 11 35 24 63 41 86 256 590 256 600 0 5 5 15 12 22 6 6 13 17 14 24 2
11 140 340 164 393 17 36 28 104 23 142 -11 78 -74 137 -210 199 -91 41 -143
56 -212 60 -76 4 -106 -9 -153 -68 -28 -35 -88 -146 -88 -163 0 -2 -15 -36
-34 -77 -28 -62 -68 -153 -107 -245 -5 -13 -13 -33 -18 -45 -6 -13 -24 -57
-41 -99 -38 -94 -47 -107 -86 -118 -26 -7 -49 -2 -135 32 -57 23 -105 45 -107
49 -2 4 -9 8 -17 8 -7 0 -48 16 -91 36 -44 19 -92 41 -109 48 -61 27 -181 78
-210 91 -16 7 -100 43 -185 80 -154 67 -218 94 -275 120 -16 7 -95 41 -175 75
-80 34 -163 70 -185 80 -22 10 -85 37 -140 60 -55 23 -124 53 -153 66 -29 13
-54 24 -56 24 -2 0 -25 10 -52 22 -27 12 -51 23 -54 23 -7 2 -80 34 -105 45
-11 6 -98 43 -194 84 -234 100 -259 121 -311 251 -32 80 -83 160 -136 212 -45
43 -147 115 -174 122 -8 2 -40 13 -70 24 -37 13 -88 20 -155 22 -87 3 -111 0
-180 -23z"/>
<path d="M5632 6335 c-131 -29 -275 -125 -348 -230 -80 -114 -132 -314 -103
-393 6 -14 5 -21 0 -17 -10 6 -1 -36 30 -132 38 -117 32 -189 -28 -319 -15
-33 -27 -61 -28 -64 -1 -3 -8 -21 -17 -40 -8 -19 -39 -91 -68 -160 -29 -69
-63 -149 -76 -178 -13 -29 -24 -55 -24 -58 0 -3 -12 -31 -26 -62 -14 -31 -30
-68 -36 -82 -5 -14 -16 -38 -23 -55 -8 -16 -38 -88 -68 -160 -30 -71 -63 -148
-73 -170 -9 -22 -18 -42 -19 -45 -1 -3 -8 -21 -17 -40 -8 -19 -48 -111 -87
-205 -39 -93 -76 -179 -81 -190 -11 -24 -33 -76 -90 -210 -54 -127 -63 -149
-65 -155 -1 -3 -7 -16 -12 -30 -61 -141 -177 -415 -230 -540 -35 -85 -73 -175
-84 -199 -29 -62 -60 -143 -65 -166 -26 -120 5 -192 106 -244 19 -10 143 -64
275 -121 132 -56 254 -108 270 -115 17 -7 75 -32 130 -55 55 -23 139 -59 187
-80 47 -21 89 -36 92 -32 3 3 6 0 6 -6 0 -7 6 -12 13 -12 8 0 54 -17 103 -38
130 -57 150 -61 216 -48 78 17 153 119 213 291 9 28 20 57 24 65 15 30 4 126
-19 167 -31 56 -73 80 -365 208 -62 27 -223 93 -294 121 -41 16 -89 42 -107
59 -29 27 -32 37 -30 76 1 24 10 60 18 79 63 136 168 386 168 397 0 7 5 13 10
13 6 0 10 7 10 15 0 8 4 23 10 33 12 22 60 131 60 137 0 4 32 79 60 140 5 11
64 148 130 305 67 157 130 304 141 327 10 24 19 45 19 48 0 3 9 25 20 50 11
25 29 65 40 90 11 25 20 47 20 49 0 2 10 25 22 52 12 27 23 51 23 54 1 3 9 23
19 45 10 22 26 60 36 85 28 70 109 260 131 307 10 24 19 45 19 47 0 2 10 26
22 53 11 26 22 54 24 60 3 18 60 88 94 117 17 13 68 43 114 66 126 61 220 157
280 283 9 21 20 48 22 60 3 12 6 27 7 32 2 6 5 15 8 20 19 34 7 229 -19 295
-3 8 -6 18 -7 23 -2 4 -3 8 -5 10 -1 1 -3 10 -5 19 -2 9 -24 49 -50 89 -83
129 -179 203 -330 254 -69 23 -214 28 -293 10z"/>
<path d="M2406 6237 c-23 -23 -51 -76 -106 -202 -9 -22 -29 -66 -44 -98 -14
-32 -26 -61 -26 -64 0 -4 -10 -26 -21 -50 -34 -70 -12 -144 51 -178 14 -7 70
-32 125 -55 55 -23 128 -55 163 -71 35 -16 66 -29 71 -29 4 0 35 -13 69 -30
34 -16 64 -30 67 -30 4 0 167 -70 350 -150 268 -117 467 -201 495 -209 50 -15
85 4 118 67 64 120 189 410 187 433 -1 13 -3 29 -4 35 -4 34 -63 76 -176 124
-66 29 -138 60 -160 70 -22 10 -56 25 -75 33 -19 8 -60 26 -90 40 -30 14 -147
64 -260 111 -113 48 -216 92 -230 98 -14 6 -27 12 -30 13 -12 4 -72 30 -213
92 -179 78 -224 87 -261 50z"/>
<path d="M917 4695 c-69 -24 -118 -92 -181 -252 -76 -192 -57 -280 74 -349 47
-25 154 -75 170 -79 3 -1 25 -11 50 -22 25 -11 70 -30 100 -43 30 -12 71 -29
90 -38 19 -8 82 -32 140 -53 131 -48 161 -75 154 -142 -3 -35 -120 -334 -184
-472 -5 -11 -41 -96 -80 -190 -39 -93 -78 -185 -87 -204 -8 -18 -16 -39 -17
-46 -1 -7 -7 -19 -14 -27 -6 -8 -13 -23 -15 -34 -2 -10 -10 -35 -19 -54 -10
-19 -44 -102 -78 -185 -34 -82 -67 -163 -75 -180 -12 -28 -81 -195 -232 -560
-36 -88 -86 -207 -110 -265 -25 -58 -46 -109 -47 -115 -1 -5 -8 -20 -14 -32
-7 -13 -10 -23 -7 -23 4 0 -3 -13 -14 -29 -12 -16 -21 -34 -21 -40 0 -6 -4
-11 -10 -11 -5 0 -10 -7 -10 -15 0 -8 -3 -15 -7 -15 -5 0 -26 -17 -48 -38 -37
-35 -118 -92 -130 -92 -16 0 -132 -116 -140 -141 -4 -10 -10 -19 -14 -19 -12
0 -57 -106 -76 -175 -17 -65 -18 -187 -3 -264 16 -75 83 -204 140 -266 83 -91
177 -147 303 -180 59 -16 243 -13 295 5 251 84 413 289 424 538 2 50 -1 77
-18 167 -6 27 -14 49 -44 115 -19 42 -25 72 -25 130 -1 72 2 83 81 270 46 107
87 204 92 215 25 57 52 121 54 130 2 6 8 21 13 35 6 14 27 63 46 110 20 47 42
98 51 114 8 16 13 33 10 38 -3 4 0 8 5 8 6 0 11 5 11 12 0 6 38 104 85 217 90
215 99 237 115 274 5 12 39 94 76 182 36 88 74 179 85 202 10 23 19 48 19 55
0 8 4 18 9 24 4 5 50 110 100 234 51 124 101 244 112 267 10 24 19 45 19 47 0
2 10 25 22 52 12 27 23 54 24 59 2 6 16 42 32 80 86 203 132 320 138 353 15
83 0 135 -53 183 -45 41 -73 55 -240 124 -87 36 -171 72 -188 79 -32 15 -132
56 -345 143 -74 30 -146 60 -160 66 -14 6 -27 11 -30 12 -12 4 -49 20 -95 40
-153 68 -250 90 -308 70z"/>
<path d="M5646 4149 c-25 -24 -46 -47 -46 -51 0 -8 -192 -471 -225 -543 -12
-27 -41 -95 -65 -150 -23 -55 -48 -113 -55 -130 -8 -16 -36 -84 -64 -150 -27
-66 -65 -154 -83 -195 -54 -119 -64 -150 -59 -196 3 -32 64 -71 201 -132 238
-105 299 -123 345 -100 25 13 75 59 75 70 0 4 13 36 29 70 16 35 54 126 86
203 70 170 140 336 164 390 10 22 49 112 86 200 37 88 72 166 77 173 6 6 8 12
5 12 -5 0 41 110 65 154 5 10 11 26 13 35 2 9 11 36 19 60 18 50 9 106 -22
134 -20 18 -177 87 -198 87 -8 0 -14 5 -14 10 0 6 -6 10 -13 10 -8 0 -47 16
-88 37 -50 24 -92 38 -131 41 -56 4 -58 4 -102 -39z"/>
<path d="M745 3887 c-48 -16 -87 -70 -138 -195 -26 -64 -50 -124 -52 -132 -2
-8 -48 -118 -101 -245 -53 -126 -114 -272 -135 -324 -22 -52 -46 -108 -54
-125 -7 -17 -26 -60 -40 -96 -14 -36 -32 -78 -39 -95 -84 -191 -90 -247 -32
-298 23 -21 128 -71 231 -112 39 -15 93 -39 120 -53 96 -48 162 -37 209 36 14
20 52 107 86 192 54 134 99 243 130 315 5 11 57 137 116 280 58 143 118 284
131 314 14 30 26 59 28 65 2 12 7 23 49 124 51 120 27 158 -140 225 -65 26
-144 59 -174 74 -30 15 -57 27 -60 28 -3 0 -10 3 -16 7 -25 16 -90 24 -119 15z"/>
<path d="M2230 2358 c-29 -15 -56 -41 -81 -78 -21 -30 -36 -57 -33 -59 2 -2 0
-9 -5 -15 -5 -6 -32 -67 -61 -136 -29 -69 -60 -143 -70 -165 -10 -22 -70 -166
-134 -320 -65 -154 -123 -293 -131 -310 -133 -299 -109 -384 136 -488 47 -20
93 -37 101 -37 8 0 18 -3 22 -7 8 -9 28 -12 86 -15 89 -4 150 47 210 177 99
216 143 319 214 511 36 95 71 129 134 128 45 -1 99 -22 747 -299 17 -7 51 -22
77 -34 26 -11 50 -21 53 -21 2 0 28 -11 57 -24 29 -13 125 -54 213 -91 88 -36
174 -73 190 -80 17 -7 55 -23 85 -35 30 -12 70 -28 88 -36 17 -8 47 -20 65
-28 29 -13 406 -170 607 -253 47 -19 103 -43 125 -53 22 -10 56 -25 76 -34 68
-30 125 -100 161 -200 108 -298 528 -448 813 -290 28 16 55 33 61 39 7 5 29
24 49 40 66 53 161 203 180 285 2 8 8 29 14 47 14 48 11 199 -6 257 -17 59
-58 147 -81 175 -10 11 -28 35 -42 53 -75 97 -198 179 -310 206 -54 13 -234 5
-280 -12 -63 -25 -193 -31 -255 -13 -39 12 -462 187 -570 237 -17 7 -259 110
-540 227 -33 14 -73 31 -90 38 -188 81 -388 165 -390 165 -2 0 -81 33 -177 73
-190 81 -211 90 -218 92 -3 0 -21 8 -40 17 -19 9 -91 40 -160 68 -69 28 -138
57 -155 65 -16 7 -102 43 -190 80 -88 37 -173 73 -190 80 -218 95 -284 109
-355 73z"/>
<path d="M2679 1286 c-26 -16 -71 -93 -83 -141 -4 -12 -17 -45 -47 -110 -12
-27 -23 -52 -24 -55 -1 -3 -13 -31 -28 -62 -51 -108 -42 -175 32 -220 38 -24
202 -96 235 -103 11 -3 24 -9 30 -15 5 -5 16 -10 23 -10 7 0 36 -11 65 -24 29
-13 141 -61 248 -106 107 -45 219 -93 249 -106 29 -13 60 -24 67 -24 8 0 14
-4 14 -10 0 -5 8 -10 18 -10 10 0 42 -11 70 -25 29 -14 55 -25 58 -25 3 0 36
-14 72 -31 108 -50 192 -79 229 -79 46 0 76 32 119 128 20 42 39 86 44 97 48
107 93 225 97 255 6 41 -12 83 -49 117 -12 11 -79 44 -148 72 -69 29 -134 56
-145 61 -11 5 -74 32 -140 59 -103 42 -333 138 -415 174 -14 5 -27 11 -30 12
-3 1 -23 9 -45 19 -22 10 -62 27 -90 38 -27 11 -72 30 -100 42 -27 13 -88 38
-135 56 -47 18 -90 37 -96 42 -17 13 -62 5 -95 -16z"/>
</g>
</svg>
