<?xml version="1.0" standalone="no"?>
<!DOCTYPE svg PUBLIC "-//W3C//DTD SVG 20010904//EN"
 "http://www.w3.org/TR/2001/REC-SVG-20010904/DTD/svg10.dtd">
<svg version="1.0" xmlns="http://www.w3.org/2000/svg"
 width="700.000000pt" height="700.000000pt" viewBox="0 0 700.000000 700.000000"
 preserveAspectRatio="xMidYMid meet">
<metadata>
Created by potrace 1.14, written by Peter Selinger 2001-2017
</metadata>
<g transform="translate(0.000000,700.000000) scale(0.100000,-0.100000)"
fill="#000000" stroke="none">
<path d="M3279 6996 c-2 -2 -45 -6 -95 -10 -51 -3 -105 -8 -120 -11 -16 -2
-75 -12 -131 -21 -56 -8 -108 -17 -115 -18 -7 -2 -31 -6 -53 -11 -195 -37
-480 -129 -710 -228 -82 -35 -345 -171 -410 -212 -239 -150 -517 -366 -644
-499 l-35 -36 1755 -1 c964 0 1763 -2 1774 -3 110 -14 211 -54 302 -119 182
-132 279 -376 237 -599 -23 -121 -52 -172 -339 -593 -86 -127 -231 -341 -437
-645 -68 -102 -219 -324 -335 -495 -115 -170 -276 -409 -358 -530 -82 -121
-196 -290 -253 -375 -58 -85 -157 -231 -220 -325 -64 -93 -166 -245 -229 -337
-62 -91 -113 -169 -113 -172 0 -3 861 -6 1913 -6 1810 0 1913 1 1923 17 57 92
234 464 234 493 0 6 9 29 19 53 34 73 108 329 136 467 8 41 17 85 20 98 3 12
1 22 -4 22 -5 0 -204 -96 -442 -214 -976 -482 -1154 -567 -1202 -577 -156 -34
-328 54 -396 201 -37 80 -36 202 1 283 49 105 88 133 411 291 161 79 508 250
771 380 l479 237 -69 33 c-38 18 -229 112 -424 208 -195 97 -512 253 -704 347
-384 190 -413 210 -464 320 -36 76 -38 201 -4 274 70 156 238 243 399 209 28
-6 216 -93 419 -193 203 -100 500 -246 659 -324 160 -78 354 -174 433 -213 78
-39 142 -69 142 -68 0 2 -9 48 -20 102 -33 163 -115 444 -160 549 -5 11 -30
70 -55 130 -122 287 -307 587 -529 855 -82 99 -327 347 -406 411 -30 24 -62
50 -70 58 -27 26 -206 157 -291 213 -390 257 -837 438 -1289 523 -14 3 -36 7
-50 10 -36 7 -81 14 -126 20 -21 2 -57 7 -79 10 -22 3 -62 8 -90 11 -58 6
-551 15 -556 10z"/>
<path d="M368 5148 c-153 -281 -267 -587 -333 -888 -14 -63 -28 -125 -30 -137
-3 -13 -1 -23 4 -23 5 0 200 94 432 209 1016 501 1164 572 1206 583 107 27
248 -16 329 -99 71 -72 98 -139 98 -243 1 -104 -27 -172 -99 -244 -49 -49 -45
-48 -1283 -656 -160 -79 -292 -147 -292 -150 0 -3 132 -71 293 -150 160 -79
486 -240 724 -357 237 -117 434 -213 438 -213 16 0 127 -84 149 -113 50 -66
70 -126 70 -217 0 -95 -18 -148 -75 -219 -81 -101 -226 -151 -355 -121 -23 5
-221 98 -440 206 -219 108 -523 257 -674 331 -151 74 -333 164 -403 199 -97
49 -127 60 -124 47 3 -10 9 -38 12 -63 16 -110 125 -489 165 -575 5 -11 21
-49 36 -85 45 -110 128 -281 184 -375 29 -49 58 -99 64 -110 91 -163 321 -452
505 -636 398 -397 855 -682 1380 -860 131 -45 357 -104 466 -124 134 -23 209
-35 265 -41 36 -3 76 -8 90 -10 52 -9 529 -11 615 -3 115 10 193 19 228 25
114 18 149 24 227 40 627 129 1239 448 1705 888 l90 85 -1755 1 c-965 0 -1773
3 -1795 6 -192 27 -378 162 -463 337 -60 124 -77 223 -60 353 19 137 37 169
533 899 45 66 144 212 220 325 76 113 180 266 230 340 50 74 158 234 240 355
82 121 190 281 240 355 50 74 152 225 227 335 281 418 395 585 495 731 56 84
103 155 103 158 0 3 -861 6 -1913 6 l-1914 0 -55 -102z"/>
</g>
</svg>
